/* XPM */
static char *result[] = {
/* columns rows colors chars-per-pixel */
"64 64 219 2 ",
"   c #010000",
".  c #0C0200",
"X  c #1C0303",
"o  c #1F1D0E",
"O  c #250000",
"+  c #2B0000",
"@  c #240D00",
"#  c #340000",
"$  c #251201",
"%  c #2F1201",
"&  c #3C1B0A",
"*  c #3A1804",
"=  c #3B1A12",
"-  c #162700",
";  c #3A2418",
":  c #3B2923",
">  c #551E00",
",  c #411D0C",
"<  c #6A0000",
"1  c #791C00",
"2  c #532509",
"3  c #5D2A09",
"4  c #582706",
"5  c #432A1C",
"6  c #4B301F",
"7  c #4B2303",
"8  c #652700",
"9  c #652B01",
"0  c #6C2C00",
"q  c #622D0C",
"w  c #6B340D",
"e  c #693400",
"r  c #74360F",
"t  c #78370F",
"y  c #6A3314",
"u  c #7C3910",
"i  c #763711",
"p  c #4F3321",
"a  c #553623",
"s  c #603B24",
"d  c #64432B",
"f  c #7F7369",
"g  c #776E61",
"h  c #D73B3A",
"j  c #9B4F3F",
"k  c #99493B",
"l  c #9D5343",
"z  c #9F594E",
"x  c #A05A4D",
"c  c #926240",
"v  c #846D5F",
"b  c #99635E",
"n  c #A46B42",
"m  c #A96F44",
"M  c #AD7347",
"N  c #B2764A",
"B  c #B87B51",
"V  c #836E60",
"C  c #827165",
"Z  c #837469",
"A  c #DF544F",
"S  c #DC5A56",
"D  c #DC5E59",
"F  c #F1504E",
"G  c #EC5B55",
"H  c #EE5E58",
"J  c #E45C58",
"K  c #F55F58",
"L  c #FC5E5A",
"P  c #F75A55",
"I  c #E7524E",
"U  c #DC615C",
"Y  c #E8635D",
"T  c #F5625B",
"R  c #FD645D",
"E  c #CC7878",
"W  c #D27876",
"Q  c #EB6964",
"!  c #FB6562",
"~  c #F46B64",
"^  c #F96B65",
"/  c #F46D6A",
"(  c #FA6F69",
")  c #F5706C",
"_  c #FB746D",
"`  c #E87B79",
"'  c #FB7770",
"]  c #F37A74",
"[  c #FC7A73",
"{  c #F27D7A",
"}  c #F77B77",
"|  c #E8766F",
" . c #CF8754",
".. c #CF8656",
"X. c #D38853",
"o. c #DD996A",
"O. c #D8817B",
"+. c #E29D6D",
"@. c #FB857D",
"#. c #F6847E",
"$. c #E39F70",
"%. c #E4847F",
"&. c #E5A273",
"*. c #EAA779",
"=. c #F4AD74",
"-. c #F7B277",
";. c #F6B37D",
":. c #F9B37B",
">. c #F8B076",
",. c #F2A86D",
"<. c #BE9D81",
"1. c #CF8885",
"2. c #DB8684",
"3. c #ED8683",
"4. c #EE8985",
"5. c #E88D88",
"6. c #F38582",
"7. c #F28985",
"8. c #FB8B82",
"9. c #F28D89",
"0. c #F98B86",
"q. c #E5978F",
"w. c #EF928C",
"e. c #E29A88",
"r. c #FB9087",
"t. c #F3918D",
"y. c #FB938B",
"u. c #FB988F",
"i. c #ED9792",
"p. c #E49C94",
"a. c #ED9C94",
"s. c #E49C9B",
"d. c #ED9D9C",
"f. c #E29191",
"g. c #F39591",
"h. c #F59A95",
"j. c #FB9C94",
"k. c #FA9F98",
"l. c #F69F9A",
"z. c #E4A58B",
"x. c #F7B583",
"c. c #F8B682",
"v. c #F8B985",
"b. c #F3B68A",
"n. c #F6BA8C",
"m. c #F8BB8C",
"M. c #F6B887",
"N. c #E2A39B",
"B. c #EEA89F",
"V. c #E5AB98",
"C. c #F6A19C",
"Z. c #FBA39D",
"A. c #F4BC94",
"S. c #F2BE9A",
"D. c #F8BF92",
"F. c #EDB68F",
"G. c #EBABA3",
"H. c #ECAEAB",
"J. c #E4A8A1",
"K. c #F4A4A5",
"L. c #FCA6A0",
"P. c #F5ABA4",
"I. c #FBABA4",
"U. c #FBAFA9",
"Y. c #F1ADAD",
"T. c #E3B3AD",
"R. c #EAB3AC",
"E. c #E9B5AB",
"W. c #FBB4AB",
"Q. c #FBB9AF",
"!. c #F6B3A9",
"~. c #F7AFB0",
"^. c #E9BBB5",
"/. c #F4B3B5",
"(. c #FAB4B4",
"). c #FBBDB3",
"_. c #FCBCBD",
"`. c #F5BAB5",
"'. c #F4C19C",
"]. c #F9C296",
"[. c #F3C5A2",
"{. c #F2CBAC",
"}. c #F6C9A6",
"|. c #E2C3BE",
" X c #EDC2BA",
".X c #FCC1B6",
"XX c #F3C2BA",
"oX c #FCC5BB",
"OX c #FCC9BF",
"+X c #F5C7B6",
"@X c #F5D3B9",
"#X c #E7CCC9",
"$X c #FBC2C3",
"%X c #FACDC3",
"&X c #F9CCC7",
"*X c #FAD1C6",
"=X c #F3D5CD",
"-X c #FAD4CB",
";X c #FAD8CE",
":X c #EBD6D6",
">X c #E8D9D8",
",X c #FADCD3",
"<X c #FADCD9",
"1X c #F5D9D2",
"2X c #FAE0D6",
"3X c #FBE4DB",
"4X c #FEE8DF",
"5X c #EBDFE0",
"6X c #EFEBEC",
"7X c #EEE6E7",
"8X c #FCEAE2",
"9X c #FAEFE9",
"0X c #F3E7E5",
"qX c #FCF2EC",
"wX c #FBF5F2",
"eX c #FBF9F5",
"rX c #FDFEFD",
"tX c #F5F6F7",
"yX c #C39490",
/* pixels */
"yXyXyXyXyXyXyXyXyXyXyXyXyXyXyXyXyXyXyXyXyXyXyXyXyXyXyX3 yXyXyXyXyXyXyXyXyXyXyXyXyXyXyXyXyXyXyXyXyXyXyXyXyXyXyXyXyXyXyXyXyXyXyXyX",
"yXyXyXyXyXyXyXyXyXyXyXyXyXyXyXyXyXyXyXyXyXyXyXyXyXq r y yXyXyXyXyXyXyXyXyXyXyXyXyXyXyXyXyXyXyXyXyXyXyXyXyXyXyXyXyXyXyXyXyXyXyXyX",
"yXyXyXyXyXyXyXyXyXyXyXyXyXyXyXyXyXyXyXyXyXyXyX4 r > O 7 yXyXyXyXyXyXyXyXyXyXyXyXyXyXyXyXyXyXyXyXyXyXyXyXyXyXyXyXyXyXyXyXyXyXyXyX",
"yXyXyXyXyXyXyXyXyXyXyXyXyXyXyXyXyXyXyXyX@ 2 r 8 X 9 <.V yXyXyXyXyXyXyXyXyXyXyXyXyXyXyXyXyXyXyXyXyXyXyXyXyXyXyXyXyXyXyXyXyXyXyXyX",
"yXyXyXyXyXyXyXyXyXyXyXyXyXyXyXyXyXyXyX2 r 8 # s B $.{.Z yXyXyXyXyXyXyXyXyXyXyXyXyXyXyXyXyXyXyXyXyXyXyXyXyXyXyXyXyXyXyXyXyXyXyXyX",
"yXyXyXyXyXyXyXyXyXyXyXyXyXyXyXyX$ 3 u 0 + a N &.[.{.@Xv yXyXyXyXyXyXyXyXyXyXyXyXyXyXyXyXyXyXyXyXyXyXyXyXyXyXyXyXyXyXyXyXyXyXyXyX",
"yXyXyXyXyXyXyXyXyXyXyXyXyXyX$ 4 i 0 O p M &.S.{.[.:.[.C yXyXyXyXyXyXyXyXyXyXyXyXyXyXyXyXyXyXyXyXyXyXyXyXyXyXyXyXyXyXyXyXyXyXyXyX",
"yXyXyXyXyXyXyXyXyXyXyXyX% q i 0 # 5 m $.A.@X{.;.x.;.[.C yXyXyXyXyXyXyXyXyXyXyXyXyXyXyXyXyXyXyXyXyXyXyXyXyXyXyXyXyXyXyXyXyXyXyXyX",
"yXyXyXyXyXyXyXyXyXyXX 4 t 9 O 5 n +.S.{.[.A.A.A.M.>.[.Z yXyXyXyXyXyXyXyXyXyXyXyXyXyXyXyXyXyXyXyXyXyXyXyXyXyXyXyXyXyXyXyXyXyXyXyX",
"yXyXyXyXyXyXyXyX@ 3 i 8 X d M o.A.{.[.M.:.n.S.>.}.{.S.Z yXyXyXyXyXyXyXyXyXyXyXyXyXyXyXyXyXyXyXyXyXyXyXyXyXyXyXyXyXyXyXyXyXyXyXyX",
"yXyXyXyXyXyX. 4 u 0 O a N &.A.{.[.[.x.x.x.A.S.=.}.}.].Z yXyXyXyXyXyXyXyXyXyXyXyXyXyXyXyXyXyXyXyXyXyXyXyXyXyXyXyXyXyXyXyXyXyXyXyX",
"yXyXyXyX* 3 r 0 + p M &.'.{.{.n.:.S.b.c.x.n.A.x.;.c.{.V yXyXyXyXyXyXyXyXyXyXyXyXyXyXyXyXyXyXyXyXyXyXyXyXyXyXyXyXyXyXyXyXyXyXyXyX",
"yXyX@ 4 u 0 + 6 M $.S.{.{.A.-.x.c.S.M.x.x.A.S.;.c.c.{.g yXyXyXyXyXyXyXyXyXyXyXyXyXyXyXyXyXyXyXyXyXyXyXyXyXyXyXyXyXyXyXyXyXyXyXyX",
"% 4 r 0 X 5 m +.S.{.[.c.n.A.x.M.;.S.M.x.;.n.A.x.m.:.b.b k yXyXyXyXyXyXyXyXyXyXyXyXyXyXyXyXyXyXyXyXyXyXyXyXyXyXyXyXyXyXyXyXyXyXyX",
"* w # ; c +.A.{.[.b.;.;.A.A.;.x.x.S.M.x.x.n.S.x.,.V.:XtXwXeX:XT.yXyXyXyXyXyXyXyXyXyXyXyXyXyXyXyXyXyXyXyXyXyXyXyXyXyXyXyXyXyXyXyX",
", > c +.A.{.[.D.A.;.x.x.A.A.x.M.x.S.b.x.x.D.F.z.#XtXrXrXrXrXrXrX<XyXyXyXyXyXyXyXyXyXyXyXyXyXyXyXyXyXyXyXyXyXyXyXyXyXyXyXyXyXyXyX",
"* y X.S.}.n.:.b.S.x.x.x.A.A.;.x.x.S.M.v.-.*.|.tXrXeXeXrXrXrXrXeXrX0XyXyXyXyXyXyXyXyXyXyXyXyXyXyXyXyXyXyXyXyXyXyXyXyXyXyXyXyXyXyX",
"& w  .[.;.x.;.m.S.;.M.x.A.A.x.M.x.'.b.+.^.6XrXrXwXeXeXrXrXqX9X2X2X8X XyXyXyXyXyXyXyXyXyXyXyXyXyXyXyXyXyXyXyXyXyXyXyXyXyXyXyXyXyX",
"& y  .[.M.:.].n.S.;.x.x.A.A.;.x.c.b.V.:XrXrXtXrXeXeXqX8X4X4X,XOX!.P.oXp.yXyXyXyXyXyXyXyXyXyXyXyXyXyXyXyXyXyXyXyXyXyXyXyXyXyXyXyX",
"& w  .[.:.@X].M.S.x.M.;.A.A.;.c.*.#XtXrXrXrXrXeXtXqX8X4X-XXXB.N.E.E.E.G.1.yXyXyXyXyXyXyXyXyXyXyXyXyXyXyXyXyXyXyXyXyXyXyXyXyXyXyX",
"& w ..[.;.{.].x.S.;.M.;.].].=.z.5XrXrXrXrXrXrXtX8X4X;XOXB.p.R.XX;X2X3X4X8XXXp.yXyXyXyXyXyXyXyXyXyXyXyXyXyXyXyXyXyXyXyXyXyXyXyXyX",
"& w ..[.v.-.;.b.S.;.b.v.b.z.|.tXrXrXrXrXrXrXwX8X4XOXB.q.P.oX.X%X3X4X8X,X;X-X;X`.yXyXyXyXyXyXyXyXyXyXyXyXyXyXyXyXyXyXyXyXyXyXyXyX",
"& w ..'.D.D.c.b.'.v.;.&.T.6XrXrXrXrXrXrXrXqX4X2XXXq.B..XOX*X,X3XqX8X;X*X*X-X;X4X*XW yXyXyXyXyXyXyXyXyXyXyXyXyXyXyXyXyXyXyXyXyXyX",
"& w  .[.n.v.c.m.'.*.T.7XrXrXrXrXrXrXrXwX8X4XXXp.p..X*X;X2X4X8X3X3X;X*X;X2X2X4X4X4XoX5.yXyXyXyXyXyXyXyXyXyXyXyXyXyXyXyXyXyXyXyXyX",
"& w  .[.x.x.M.v.F.>XrXrXrXrXrXrXrXrXqX4X;XV.p.Q.OX-X2X4X3X2X3X2X*X*X,X3X3X3X3X,X-XXXW.g.` yXyXyXyXyXyXyXyXyXyXyXyXyXyXyXyXyXyXyX",
"& w ..[.M.-.*.J.6XrXrXtXrXrXrXrXeX8X3X%Xp.!.OX;X2X3X4X3X3X3X,X*X-X2X3X3X3X3X;X*X%X!.L.U.Q.I.a.O.yXyXyXyXyXyXyXyXyXyXyXyXyXyXyXyX",
"& w  .[.F.e.#XrXrXrXrXrXrXrXrXwX4X4X^.p.`.-X2X3X2X4X2X3X2X;X*X;X3X3X2X3X2X-X*X=XQ.Q.OX;X-X-X-X-X-X^.yXyXyXyXyXyXyXyXyXyXyXyXyXyX",
"& y X.z.#X>XrXrXrXrXrXrXrXrXwX4X4XE.a.%X-X3X3X3X4X3X2X;X*X*X,X3X3X3X3X2X*X-X,X-X<X8X4X-X*X-X,X4X8X9X3X%XG.yXyXyXyXyXyXyXyXyXyXyX",
"= e ..tX6X7XrXrXrXrXrXrXtXqX4X-XN.B.4X;X2X4X4X2X,X-X*X*X;X,X3X3X8X2X-X%X-X2X3X3X9X2X-X*X,X3X3X3X3X3X4X;X,X,XXXN.yXyXyXyXyXyXyXyX",
": < ^.rX>XtXrXrXrXrXrXrX9X8XXXq..X-X0X4X3X,X;X*X%X*X-X2X2X8X3X2X1X*X*X,X3X3X3X8X,X*X-X2X3X3X3X3X4X2X-X*X2X8X9X8X=XR.yXyXyXyXyXyX",
"; < R.<X5XrXrXrXrXrXrXqX2XH.p.%X-X3X4X2X-X*X*X-X,X2X3X3X3X<X;X*X%X-X2X3X2X4X3X,X*X,X2X2X3X2X3X3X,X*X*X2X4X9X4X4X3X,X*X!.yXyXyXyX",
". k _./.:XwXrXrXrXrXqX3Xp.B.-X-X,X3X2X*X*X;X,X3X4X2X4X2X,X*X*X-X,X2X2X4X3X,X-X=X-X3X3X4X3X3X,X-X%X-X2X4X3X4X,X*X%X*X;X9X#XyXyXyX",
"  l _.^.1X4X9XrXrX8X8X^.P.,X*X,X4X2X*X-X<X3X3X4X4X2X1X=X*X-X2X2X3X4X3X,X-X%X*X1X3X4X3X2X;X-X*X=X;X2X4X3X2X;X%X-X,X,X3X4XqX^.yXyX",
". k _.H.1X4X2X3X3X4X1XG.*X-X;X3X2X*X-X3X4X3X3X2X,X-X*X-X2X3X3X3X3X2X;X*X-X;X2X3X2X,X-X*X*X*X;X2X4X3X2X,X*X=X,X2X3X3X3X3X-XQ.yXyX",
"  l _.G.OX2X4X3X3X,XV.).%X;X2X4X,X-X2X3X3X3X2X,X*X*X,X3X3X2X3X3X1X*X*X;X2X4X3X,X*X*X*X=X,X3X3X3X2X,X*X*X-X,X3X2X4X2X,XOXQ.U.%.yX",
"  j _.H.+XOX-X2X,XP.P..XQ.-X4X2X-X2X4X2X4X<X*X=X;X3X3X3X3X3X2X-X*X;X,X3X3X2X=X*X-X,X2X3X3X3X3X,X-X%X-X,X3X2X4X4X,X%XoX(.Z.Z.t.yX",
"  l _.H.oX).).oX.X{ `.Q.U.oX-X%X,X3X3X3X2X-X-X2X3X3X4X2X2X;X*X*X,X2X4X3X,X*X*X,X3X3X3X3X3X,X*X*X-X,X3X3X3X3X2X;XoX%X).Z.Z.Z.h.yX",
"  l (.H..X%X%XoXU.) !.Q.<X%XQ.W.;X3X3X4X-X*X2X3X2X3X3X2X-X*X;X3X3X3X2X,X*X;X2X3X3X3X3X3X,X*X-X,X2X3X8X3X3X;XOX).(.,XZ.j.Z.I.g.yX",
"  z /.H.oX2X*XQ.g.] L.U.*X.X!.Q.).%X,X-X-X3X3X2X3X2X,X*X-X,X3X3X3X2X-X*X,X2X3X3X3X3X,X-X%X;X2X3X8X4X2X-XOX.XQ.Q.Z.u.Z.Z.Z.I.g.yX",
"  l (.G.oXQ.U.U.r.] y.g.).).W..X.X.XQ.(.,X2X3X4X3X,X%X;X3X3X3X3X<X-X-X,X2X3X4X2X,X-X*X-X,X3X4X3X9X1XoX.X).!.Z.Z.L.Z.L.Z.L.Z.y.yX",
"  l /.d.Z.L.Z.L.8.] 9.g.(.U.Q..X.X).!.).oX.X%X%XoXOX,X3X3X3X3X,X*X-X2X4X3X3X2X-X*X*X,X2X3X4X2X;XoX.X.XW.Z.Z.Z.Z.Z.L.Z.L.Z.u.j.yX",
"  x K.{ r.Z.I.W./ 7.9.h.L.9.I.).%X).Q.OXoX.X).Q.W.).*X2X3X3X,X*X;X3X8X3X3X;X=X*X;X2X3X4X4X;XoXOX.XW.Z.u.Z.Z.Z.Z.L.L.L.Z.j.@.r.Y ",
"  z K.T K Q / [ ~ 7.7.h.I.6.h.Q.I.Z.%X3X)..X).W.)..X).oX;X;X*X;X3X8X9X2X-X*X-X2X3X3X3X,XoX.X.XQ.Z.Z.Z.Z.Z.Z.Z.I.L.L.Z.j.@.U.Z./ ",
"$ l `.3.~ [ ~ Y H #.9.Z.Z.4.C.I.t.9.).oX.X).Q.)..X)..XoX).Q.-X3X3X3X2X=X*X2X2X3X4X3X*XoX.XQ.I.j.j.Z.Z.Z.U.Z.Z.I.Z.Z.u.@.@.Q.Z.| ",
"- k $X$Xd.Q _ [ ) [ 7.L.k.4.Z.L.t.t.I.Q.).U.P.OX%X*X.XOX).W.OX2X3X2X-X-X2X3X4X2X,XoX.XXXI.Z.Z.Z.Z.Z.W.Q.Z.Z.Z.Z.Z.u.@.@.Z.y.y.Q ",
"$ 1 W Y.&X/.` ^ [ _ / Z.Z.4.L.Z.4.h.L.L.U.w.P..XoX,X.XQ.W..X.XoX;X,X-X3X3X4X,X%XQ.*X_.j.j.j.Z.L.Z.Z.W..XZ.Z.Z.Z.r.@.r.y.y.y.@.T ",
"yXyXyXyX2._.&Xd.Q ^ ! ' 0.6.K.Z.7.h.L.L.Z.4.K.W.).).%XW.)..X.X.X.X%X=X2X2X*X.X.XI.oX).u.Z.L.Z.L.L.L.Z.Z.Z.Z.j.@.@.r.r.y.y.@.[ T ",
"yXyXyXyXyXyX2._.$X3.F ( ' ) k.L.4.h.L.L.k.4.Z.L.U.Q.U.)..X.X.X.XQ.Q.).OXOX).).L.Z.C.Z.L.L.L.L.L.L.Z.U.Z.j.r.@.#.r.y.y.r.@.' ^ I ",
"yXyXyXyXyXyXyXyXf.$X~.| P L [ 8.{ h.L.L.k.7.C.L.L.L.9.(..X.XoX).U.OXoXOX.XZ.Z.j.U.W.Z.Z.Z.Z.Z.C.Z.u.r.8.@.@.r.j.y.y.r.@.' ^ T P ",
"yXyXyXyXyXyXyXyXyXyXs.$XK.Q ! [ ! 6.L.L.Z.7.k.L.L.l.4.P.(._.).t.Z.2X-XQ.Z.Z.Z.L.Z.Z.Z.Z.y.@.@.r.8.@.@.8.@.C.u.u.r.@.[ ' ( T R S ",
"yXyXyXyXyXyXyXyXyXyXyXyXs._.t.Q L ^ [ u.g.7.L.L.L.g.9.L.L.U.L.i.XX.X.X!.I.).I.L.Z.L.Z.u.@.@.r.@.@.r.r.y.8..XZ._ [ ' ' ~ T R Y yX",
"yXyXyXyXyXyXyXyXyXyXyXyXyXyXs.(.` ! ( [ ^ } k.L.I.9.g.I.L.I.h.i.OXoXQ.C.U.L.Z.L.Z.I.Z.r.@.y.C.u.u.y.y.r.@.@.' [ _ ( R T R Y yXyX",
"yXyXyXyXyXyXyXyXyXyXyXyXyXyXyXE s.L.{ ^ ( ! ' 8.h.6.t.u.y.L.t.i.W.).C.P.Q.I.Z.Z.Z.u.@.@.I.I.@.@.@.@.@.' @.@._ ( R T T R U yXyXyX",
"yXyXyXyXyXyXyXyXyXyXyXyXyXyXyXyXyX1.s.t./ L ' ' ' ( ( ' u.I.t.t.I.L.i..X).I.Z.Z.y.@.r.r.Z.j._ [ ' _ ' ' ( R T T T R R U yXyXyXyX",
"yXyXyXyXyXyXyXyXyXyXyXyXyXyXyXyXyXyXyX1.f.6./ ' ' ! ( 8.L.L.t.t.I.t.w.U.I.I.C.r.@.r.y.u.@.( _ ( ( ^ ( T T T R G T S yXyXyXyXyXyX",
"yXyXyXyXyXyXyXyXyXyXyXyXyXyXyXyXyXyXyXyXyXE ` 6.( ! ( y.L.L.t.t.I.t.t.Z.I.!.@.@.y.r.r.Z.[ _ T T T T R R T J J yXyXyXyXyXyXyXyXyX",
"yXyXyXyXyXyXyXyXyXyXyXyXyXyXyXyXyXyXyXyXyXyXyXW J L ( r.I.L.g.9.Z.4.g.).;XZ.#.@.y.y.8.[ _ T T T R T J S yXyXyXyXyXyXyXyXyXyXyXyX",
"yXyXyXyXyXyXyXyXyXyXyXyXyXyXyXyXyXyXyXyXyXyXyXyXyXh Q [ y.L.7.h.L.9.g.L.(.k.] 0.u.8.[ _ ^ T R H S yXyXyXyXyXyXyXyXyXyXyXyXyXyXyX",
"yXyXyXyXyXyXyXyXyXyXyXyXyXyXyXyXyXyXyXyXyXyXyXyXyXyXyXQ [ y.6.y.Z.#.C.U.Z.Z.] 8.@.[ _ ^ R K S yXyXyXyXyXyXyXyXyXyXyXyXyXyXyXyXyX",
"yXyXyXyXyXyXyXyXyXyXyXyXyXyXyXyXyXyXyXyXyXyXyXyXyXyXyXyXQ ' ^ @.u.] l.P.Z.t.^ ' [ _ T T J yXyXyXyXyXyXyXyXyXyXyXyXyXyXyXyXyXyXyX",
"yXyXyXyXyXyXyXyXyXyXyXyXyXyXyXyXyXyXyXyXyXyXyXyXyXyXyXyXyXU R _ @._ @.8.r._ ! [ ( T R U yXyXyXyXyXyXyXyXyXyXyXyXyXyXyXyXyXyXyXyX",
"yXyXyXyXyXyXyXyXyXyXyXyXyXyXyXyXyXyXyXyXyXyXyXyXyXyXyXyXyXyXyXQ _ ! _ [ [ ^ R T T T D yXyXyXyXyXyXyXyXyXyXyXyXyXyXyXyXyXyXyXyXyX",
"yXyXyXyXyXyXyXyXyXyXyXyXyXyXyXyXyXyXyXyXyXyXyXyXyXyXyXyXyXyXyXyXyXG H R R L P R G yXyXyXyXyXyXyXyXyXyXyXyXyXyXyXyXyXyXyXyXyXyXyX",
"yXyXyXyXyXyXyXyXyXyXyXyXyXyXyXyXyXyXyXyXyXyXyXyXyXyXyXyXyXyXyXyXyXyXyXyXyXI F A yXyXyXyXyXyXyXyXyXyXyXyXyXyXyXyXyXyXyXyXyXyXyXyX"
};
