/* XPM */
static char *result[] = {
/* columns rows colors chars-per-pixel */
"64 65 180 2 ",
"   c #000000",
".  c #150300",
"X  c #1E1800",
"o  c #000016",
"O  c #201E00",
"+  c #1B2700",
"@  c #003600",
"#  c #2B260D",
"$  c #332D00",
"%  c #213900",
"&  c #1E0028",
"*  c #1E1F30",
"=  c #21002A",
"-  c #260539",
";  c #32003A",
":  c #242326",
">  c #2D2E36",
",  c #2A5C00",
"<  c #046A00",
"1  c #2C1549",
"2  c #0F7104",
"3  c #2C1549",
"4  c #226100",
"5  c #2C1549",
"6  c #2C1549",
"7  c #364F3A",
"8  c #33772B",
"9  c #366D3E",
"0  c #367935",
"q  c #260044",
"w  c #3B0043",
"e  c #2C1549",
"r  c #2E1A4A",
"t  c #2E324D",
"y  c #31364F",
"u  c #342952",
"i  c #343459",
"p  c #001A6A",
"a  c #00256B",
"s  c #3D3972",
"d  c #46394F",
"f  c #4B3D50",
"g  c #3E4870",
"h  c #4C4452",
"j  c #565559",
"k  c #56555B",
"l  c #5D5D61",
"z  c #434A74",
"x  c #6B5D70",
"c  c #437668",
"v  c #686769",
"b  c #6C6E79",
"n  c #76767B",
"m  c #78797E",
"M  c #2C1549",
"N  c #39972E",
"B  c #C39490",
"V  c #C39490",
"C  c #C39490",
"Z  c #C39490",
"A  c #40973B",
"S  c #C39490",
"D  c #C39490",
"F  c #C39490",
"G  c #C39490",
"H  c #468645",
"J  c #C39490",
"K  c #42934A",
"L  c #C39490",
"P  c #C39490",
"I  c #C39490",
"U  c #C39490",
"Y  c #C39490",
"T  c #C39490",
"R  c #C39490",
"E  c #C39490",
"W  c #C39490",
"Q  c #C39490",
"!  c #C39490",
"~  c #C39490",
"^  c #C39490",
"/  c #C39490",
"(  c #C39490",
")  c #C39490",
"_  c #50BE54",
"`  c #6D8470",
"'  c #59C053",
"]  c #3A3782",
"[  c #443E84",
"{  c #33498D",
"}  c #3A4C89",
"|  c #334B91",
" . c #444283",
".. c #49588C",
"X. c #595586",
"o. c #4E6D8E",
"O. c #656089",
"+. c #7E7D82",
"@. c #495FA6",
"#. c #5768A6",
"$. c #5869A7",
"%. c #5A6BAB",
"&. c #5E70B5",
"*. c #6875AB",
"=. c #6376BC",
"-. c #6678BE",
";. c #3E6AD2",
":. c #546DC1",
">. c #5377DD",
",. c #5E7DDE",
"<. c #6579C3",
"1. c #687CC6",
"2. c #617FDD",
"3. c #827A87",
"4. c #6980CB",
"5. c #6F86D6",
"6. c #6581DF",
"7. c #6C85DC",
"8. c #7088D7",
"9. c #728ADC",
"0. c #7A8FDA",
"q. c #6C89E4",
"w. c #748CE1",
"e. c #788FE1",
"r. c #728DEA",
"t. c #7790E5",
"y. c #7B92E4",
"u. c #7992EA",
"i. c #898783",
"p. c #898885",
"a. c #858788",
"s. c #8E8793",
"d. c #8E8C93",
"f. c #908A94",
"g. c #928C98",
"h. c #95969A",
"j. c #9E9EA3",
"k. c #A5A4A3",
"l. c #A6A6AA",
"z. c #AFB0B3",
"x. c #B3B0B7",
"c. c #BABABE",
"v. c #8796D4",
"b. c #A2A8CC",
"n. c #BBBCC7",
"m. c #8298E7",
"M. c #8C9DE4",
"N. c #8FA2EC",
"B. c #92A2E4",
"V. c #9CAAE7",
"C. c #92A4EB",
"Z. c #97A8EF",
"A. c #A5B3EB",
"S. c #AEB9ED",
"D. c #B1BBEB",
"F. c #A2B1F0",
"G. c #BDC5EE",
"H. c #C4C4C9",
"J. c #C6C7CB",
"K. c #CDCDD3",
"L. c #D0D0D6",
"P. c #D5D4DA",
"I. c #DADADE",
"U. c #E0DFDE",
"Y. c #C6CCED",
"T. c #DBDBE0",
"R. c #C8CEF1",
"E. c #CFD4F2",
"W. c #E0E1E6",
"Q. c #E6E6EA",
"!. c #E8E8EE",
"~. c #E1E4F7",
"^. c #EBEBF1",
"/. c #E2E5FD",
"(. c #EAEBFA",
"). c #EFF1FA",
"_. c #F2F2F6",
"`. c #F6F6FD",
"'. c #F7F8FE",
"]. c #FAFAFE",
/* pixels */
"Q Q Q Q Q Q Q Q Q Q Q Q Q Q Q Q Q Q Q Q Q Q Q Q Q Q Q Q Q Q Q Q Q Q Q Q Q Q Q Q Q Q Q Q Q Q Q Q Q Q Q Q Q Q Q Q Q Q Q Q Q Q F / ",
"Q Q Q Q Q Q Q Q Q Q Q Q Q Q Q Q Q Q Q Q Q Q Q Q Q Q Q Q Q Q Q Q Q Q Q Q Q Q Q Q Q Q Q Q Q Q Q Q Q Q Q Q Q Q Q Q Q Q Q Q Q Q F / ",
"Q Q Q Q Q Q Q Q Q Q Q Q Q Q Q Q Q Q Q Q Q Q Q Q Q Q Q Q Q Q Q Q Q Q Q Q U Q Q Q Q Q Q Q Q Q Q Q Q Q Q Q Q Q Q Q Q Q Q Q Q Q F / ",
"Q Q Q Q Q Q Q Q Q Q Q Q Q Q Q Q Q Q Q Q Q Q Q Q Q Q Q Q Q Q Q Q Q Q Q Q Q Q Q Q Q Q Q Q Q Q Q Q Q Q Q Q Q Q Q Q Q Q Q Q Q Q Q / ",
"Q Q Q Q Q Q Q Q Q Q Q Q Q Q Q Q Q Q Q Q Q Q Q Q Q Q Q Q Q Q Q Q Q Q Q Q Q Q Q Q Q Q Q Q Q Q Q Q Q Q Q Q Q Q Q Q Q Q Q Q Q Q W / ",
"Q Q Q Q Q Q Q Q Q Q Q Q Q Q Q Q Q Q Q Q Q Q Q Q Q Q Q Q Q Q Q Q Q Q Q Q Q Q Q Q Q Q Q Q Q Q Q Q Q Q Q Q Q Q Q Q Q Q Q Q Q Q W / ",
"Q Q Q Q Q Q Q Q Q Q Q Q Q Q Q Q Q Q Q Q Q Q Q Q Q Q Q Q Q Q Q Q Q Q Q Q Q Q Q Q Q Q Q Q Q Q Q Q Q Q Q Q Q Q Q Q Q Q Q Q Q Q W / ",
"Q Q Q Q Q Q Q Q Q Q Q Q Q Q Q Q U Q Q Q Q Q Q Q Q Q Q Q Q Q Q Q Q Q Q Q Q Q Q Q Q Q Q Q Q Q Q Q Q Q Q Q Q Q Q Q Q Q Q Q Q Q W / ",
"Q Q Q Q Q Q Q Q Q Q Q Q Q Q Q Q Q ! ^ ! Q Q Q Q F ! Q U Q Q Q Q Q Q Q Q Q Q Q Q Q Q Q ! ! ! ! ! Q Q Q Q Q Q Q Q Q Q Q Q Q Q Q / ",
"Q Q Q Q Q Q Q Q Q Q Q Q Q Q Q Q J 8 3 0 D Q Q Q Q F ! ! Q F ! ! Q Q Q Q Q Q Q Q Q Q Q A 0 8 0 D ! U Q Q Q Q Q Q Q Q Q Q Q Q W / ",
"Q Q Q Q Q Q Q Q Q Q Q Q Q Q U ! 0 w x ; S ! G Q Q F I T T T T T T T T I L L U Q Q Q ! 0 q i & A ! Q Q Q Q Q Q Q Q Q Q Q Q Q W / ",
"Q Q Q Q Q Q Q Q Q Q Q Q Q Q Q ( 1 f.`.> N ' ^ W ( H =                 X + - L ^ Q / _ 5  .9.r Z ! Q Q Q Q Q Q Q Q Q Q Q Q Q W / ",
"Q Q Q Q Q Q Q Q Q Q Q Q Q Q Q ( 1 f.].U.` @ < ! 2   v I.I.P.P.I.P.U.b.:.<.* % V F , 4 o.2.8.e Z ! Q Q Q Q Q Q Q Q Q Q Q Q Q Q / ",
"Q Q Q Q Q Q Q Q Q Q Q Q Q Q U ( 1 s.].].x.3.p.S a.3.z.].].].].].].).S.q.y...[ c K [ s <.u.8.e Z ! U Q Q Q Q Q Q Q Q Q Q Q Q W / ",
"Q Q Q Q Q Q Q Q Q Q Q Q Q Q Q ( 1 f.].`.].].!.  !.].].].`.`.`.`.].B.,.0.0.r.u.%.i u.w.w.0.8.e Z ! Q Q Q Q Q Q Q Q Q Q Q Q Q W / ",
"Q Q Q Q Q Q Q Q Q Q Q Q Q Q F ( 1 f.].].].].`.W.].c.h.].].`.].(.V.m.9.w.w.g 1.w.1.w.w.w.w.9.e Z ! Q Q Q Q Q Q Q Q Q Q Q Q Q W / ",
"Q Q Q Q Q Q Q Q Q Q Q Q Q Q Q ( 1 s.].].].].].].].k.v ].].].].(.2.w.9.w.8.: -.u.w.w.w.w.w.5.e Z ! U Q Q Q Q Q Q Q Q Q Q Q Q U / ",
"Q Q Q Q Q Q Q Q Q Q Q Q Q Q W ( 1 s.].`.].].`.`.].l.m ].`.].].(.m.w.w.w.9.t <.u.9.w.9.w.w.9.e Z ! Q Q Q Q Q Q Q Q Q Q Q Q Q F / ",
"Q Q Q Q Q Q Q Q Q Q Q Q Q Q U ( 1 s.].].`.].].`.].j.l ].`.`.].(.2.2.m.w.8.O -.e.w.w.w.w.w.9.e Z ! Q Q Q Q Q Q Q Q Q Q Q Q Q F / ",
"Q Q Q Q Q Q Q Q Q Q Q Q Q Q Q ( 1 s.].].].`.].`.].I.L.].].`.]._.E.M.2.w.w.&.2.w.9.w.w.w.w.9.e Z ! Q Q Q Q Q Q Q Q Q Q Q Q Q Q / ",
"U Q Q Q Q Q Q Q Q Q Q Q Q Q U ( 1 f.].].`.].`.].`.].].].].`.`.].].V.2.m.w.e.w.w.w.w.w.w.w.9.e Z ! Q Q Q Q Q Q Q Q Q Q Q Q Q W / ",
"Q Q Q Q Q Q Q Q Q Q Q Q Q Q W ( 1 f.].].].`.].`.`.`.].].`.].`.].].M.2.0.w.9.w.w.w.w.w.9.w.8.e Z Q Q Q Q Q Q Q Q Q Q Q Q Q Q W / ",
"Q Q Q Q Q Q Q Q Q Q Q Q Q Q Q ( 1 s.].].`.].`.].].].].`.].`.].`.].~.V.2.w.w.w.w.w.w.w.w.w.9.e Z ! Q Q Q Q Q Q Q Q Q Q Q Q Q W / ",
"Q Q Q Q Q Q Q Q Q Q Q Q Q Q Q ( 1 s.].`.].`.].`.`.].`.].`.].`.`.`.].E.B.w.w.w.9.w.w.w.9.w.8.e Z ^ Q Q Q Q Q Q Q Q Q Q Q Q Q W / ",
"Q Q Q Q Q Q Q Q Q Q Q Q Q Q U ( 1 f.].].].].'.`.].`.].`.].].].].].`.].~.2.w.w.e.0.e.w.w.w.8.e Z ^ U Q Q Q Q Q Q Q Q Q Q Q Q Q / ",
"Q Q Q Q Q Q Q Q Q Q Q Q Q Q Q ^ 5 X.A.B.(.].`.].`.].`.].].].J.j v Q.].`.~.(.B.>.6.2.w.w.e.8.e Z ! Q Q Q Q Q Q Q Q Q Q Q Q Q W / ",
"Q Q Q Q Q Q Q Q Q Q Q Q Q Q Q ^ M ] q.6.G.(.].].`.].].`.`.].L.a.g.!.].`.].].R.S.D.D.m.q.r.5.e Z ! Q Q Q Q Q Q Q Q Q Q Q Q Q W / ",
"Q Q Q Q Q Q Q Q Q Q Q Q Q Q W ^ M  .t.y.>.D.].'.].`.].].].].].].].].].].].'.].].].].V.w.m.0.e C ! Q Q Q Q Q Q Q Q Q Q Q Q Q W / ",
"Q Q Q Q Q Q Q Q Q Q Q Q Q Q Q ^ M  .t.w.w.w.V.].].`.].`.].`.`.`.`.`.].`.].`.`.].`.`._.)._.^.f V ! Q Q Q Q Q Q Q Q Q Q Q Q Q Q / ",
"Q Q Q Q Q Q Q Q Q Q Q Q Q Q W ^ 6  .t.9.0.q.y.Y._.].`.`.`.].].`.].].`.].].].].`.`.].].].]._.f V ~ Q Q Q Q Q Q Q Q Q Q Q Q Q W / ",
"Q Q Q Q Q Q Q Q Q Q Q Q Q Q U ^ 6  .t.w.w.w.w.,./.].].].].].`.].].`.].`.].].`.].].`.`.`.]._.f V ! Q Q Q Q Q Q Q Q Q Q Q Q Q W / ",
"Q Q Q Q Q Q Q Q Q Q Q Q Q Q Q ! 6  .t.9.w.w.w.w.(.].`.].].`.].`.`.].`.].`.`.].`.`.].`.`.]._.f V ! U Q Q Q Q Q Q Q Q Q Q Q Q W / ",
"Q Q Q Q Q Q Q Q Q Q Q Q Q Q W ^ 6  .t.9.0.w.9.q.(.].`.`.`.].`.].].`.].`.].].`.].].`.].].]._.f V ! Q Q Q Q Q Q Q Q Q Q Q Q Q F / ",
"Q Q Q Q Q Q Q Q Q Q Q Q Q Q Q ^ 6  .t.w.w.w.w.w.(.].`.].].`.].`.`.].`.].`.].].`.`.].`.`.]._.f V ! U Q Q Q Q Q Q Q Q Q Q Q Q F / ",
"Q Q Q Q Q Q Q Q Q Q Q Q Q Q F ^ 6  .t.w.w.w.w.w.(.].`.`.].`.`.].].`.].`.].].`.`.].`.`.`.].^.f V ! Q Q Q Q Q Q U Q Q Q Q Q Q Q / ",
"Q Q Q Q Q Q Q Q Q Q Q Q Q Q Q ^ 6  .t.9.u.w.9.9.`.].`.].`.].].`.`.].`.].].].].].].].].].].`.h V ! Q Q Q Q Q Q Q Q Q Q Q Q Q F / ",
"Q Q Q Q Q Q Q Q Q Q Q Q Q Q Q ^ 6  .r.w.<.4.t.t.n.!.].`.`.].`.].`.].`.].`.].I.I.].].L.Q._.Y.d V / Q Q Q Q Q Q Q Q Q Q Q Q ! F / ",
"Q Q Q Q Q Q Q Q Q Q Q Q Q Q Q ~ 6  .t.t.i ..r.t.o c.].`.].`.].`.].`.].`.`.].v h.].].: c./.;.u Z ! Q Q Q Q Q Q Q Q Q Q Q Q Q Q / ",
"Q Q Q Q Q Q Q Q Q Q Q Q Q Q Q ^ 6  .t.w.z ..C.).k c.].].`.].].`.`.].`.].].].a.j.].].v *.N.8.r C ! Q Q Q Q Q Q Q Q Q Q Q Q Q F ( ",
"Q Q Q Q Q Q Q Q Q Q Q Q Q Q W ^ 6  .t.t.z } C.].k c.].].].].`.].].`.].].`.].+.k.`.Y.j @.r.8.e Z ! Q Q Q Q Q Q Q Q Q Q Q Q Q F / ",
"Q Q Q Q Q Q Q Q Q Q Q Q Q Q Q ~ 6  .t.w.g ..F.].k c.].].].].].`.`.].`.].].].m k./.>.t %.u.8.r C ^ U Q Q Q Q Q Q Q Q Q Q Q Q W / ",
"Q Q Q Q Q Q Q Q Q Q Q Q Q Q W ^ 6  .t.u.a k.].].k c.].].`.].`.].].`.`.].].].i.} m.y.y $.u.8.e C ! Q Q Q Q Q Q Q Q Q Q Q Q Q W / ",
"Q Q Q Q Q Q Q Q Q Q Q Q Q Q U ^ 6 [ t.y.a k.].].k c.].`.].`.].`.].`.].`.'.].p.| u.w.y $.u.5.e Z ! Q Q Q Q Q Q Q Q Q Q Q Q Q W / ",
"Q Q Q Q U Q Q Q Q Q Q Q Q Q Q ^ 6  .t.y.a k.].].k c.].`.`.].`.].`.].`.].'.].p.{ u.9.y %.u.5.e Z ! Q Q Q Q Q Q Q Q Q Q Q Q Q W / ",
"Q Q Q Q Q Q Q Q Q Q Q Q Q Q Q ^ 6  .u.r.p k.].`.j c.].].`.].`.].].`.].].`.].p.} u.0.y %.u.8.e Z ! U Q Q Q Q Q Q Q Q Q Q Q Q Q / ",
"Q Q Q Q Q Q Q Q Q Q Q Q Q Q Q ^ 6 s q.~.b l.].].l c.].].].`.].].`.].`.].].].p.| u.u.y $.u.8.e Z ! Q Q Q Q Q Q Q Q Q Q Q Q Q W / ",
"Q Q Q Q Q Q Q Q Q Q Q Q Q Q Q ^ 5 O.G.].i.n L.K.> n.].`.`.].].`.].`.].`.].].p.a <.&.* %.u.5.r C ! Q Q Q Q Q Q Q Q Q Q Q Q Q W / ",
"Q Q Q Q Q Q Q Q Q Q Q Q Q Q U _ 1 f.].].d.        H.].`.].`.`.].`.].`.].`.].g.  $ # . &.y.5.e C ! Q Q Q Q Q Q Q Q Q Q Q Q Q W / ",
"Q Q Q Q Q Q Q Q Q Q Q Q Q Q U ( 1 g.].].!.!.!.!.!.`.].].].`.].`.].`.].`.].].^.!.!.!.v.7.t.w.r C ~ Q Q Q Q Q Q Q Q Q Q Q Q Q U / ",
"Q Q Q Q Q Q Q Q Q Q Q Q Q Q Q ^ 3 x J.`.].].].].].].].].`.].`.].`.].`.].].].].].].].C.7.8.#.q C ! Q Q Q Q Q Q Q Q Q Q Q Q Q F / ",
"Q Q Q Q Q Q Q Q Q Q Q Q Q Q Q Q B     ^.].].'.`.`.`.].`.].`.].].].`.`.].].`.`.`.].'.B.q.=.  > D Q Q Q Q Q Q Q Q Q Q Q Q Q Q F ( ",
"Q Q Q Q Q Q Q Q Q Q Q Q Q Q Q Q ! C h '.].].`.`.`.`.`.`.`.`.`.].`.`.`.`.`.`.].].'.'.B.r.1.% U Q Q Q Q Q Q Q Q Q Q Q Q Q Q Q F / ",
"Q Q Q Q Q Q Q Q Q Q Q Q Q Q Q Q ! Z ; h.!.].].].].].].].].].].].].].].].].].].].].].Z.&.z : Q Q Q Q Q Q Q Q Q Q Q Q Q Q Q Q Q / ",
"Q Q Q Q Q Q Q Q Q Q Q Q Q Q Q Q ! D 7   c.Q.I.T.U.I.T.T.T.U.T.T.T.T.T.U.T.T.U.T.I.I.v.} + 9 F Q Q Q Q Q Q Q Q Q Q Q Q Q Q Q W / ",
"Q Q Q Q Q Q Q Q Q Q Q Q Q Q Q Q Q Q T 7                                             . & 9 ! Q Q Q Q Q Q Q Q Q Q Q Q Q Q Q Q W / ",
"Q Q Q Q Q Q Q Q Q Q Q Q Q Q Q Q Q Q U S L P J L L J J J P J J J J J J P J J J J J J L S D Q Q Q Q Q Q Q Q Q Q Q Q Q Q Q Q Q W / ",
"Q Q Q Q Q Q Q Q Q Q Q Q Q Q Q Q Q Q Q ! ! ! Q Q ! ! ! ! Q ! Q ! ! ! ! ! ! ! ! ! ! ! ! ! Q Q Q Q Q Q Q Q Q Q Q Q Q Q Q Q Q Q Q / ",
"Q Q Q Q Q Q Q Q Q Q Q Q Q Q Q Q Q Q Q Q Q Q Q Q Q Q Q Q Q Q Q Q Q Q Q U Q U Q F Q Q Q U Q Q Q Q Q Q Q Q Q Q Q Q Q Q Q Q Q Q W / ",
"Q Q Q Q Q Q Q Q Q Q Q Q Q Q Q Q Q Q Q Q Q Q Q Q Q Q Q Q Q Q Q Q Q Q Q Q Q Q Q Q Q Q Q Q Q Q Q Q Q Q Q Q Q Q Q Q Q Q Q Q Q Q W / ",
"Q Q Q Q Q Q Q Q Q Q Q Q Q Q Q Q Q Q Q Q Q Q Q Q Q Q Q Q Q Q Q Q Q Q Q Q Q Q Q Q Q Q Q Q Q Q Q Q Q Q Q Q Q Q Q Q Q Q Q Q Q Q W / ",
"Q Q Q Q Q Q Q Q Q Q Q Q Q Q Q Q Q Q Q Q Q Q Q Q Q Q Q Q Q Q Q Q Q Q Q Q Q Q Q Q Q Q Q Q Q Q Q Q Q Q Q Q Q Q Q Q Q Q Q Q Q Q Q / ",
"Q Q Q Q Q Q Q Q Q Q Q Q Q U Q Q Q Q Q Q Q Q Q Q Q Q Q Q Q Q Q Q Q Q Q Q Q Q Q Q Q Q Q Q Q Q Q Q Q Q Q Q Q Q Q Q Q Q Q Q Q Q W / ",
"Q Q Q Q Q Q Q F Q Q Q Q Q Q Q Q Q Q Q Q Q Q Q Q Q Q U Q Q W Q Q Q Q Q Q Q Q Q Q Q Q Q Q Q Q Q Q Q Q Q Q Q Q Q Q Q Q Q Q Q Q Q / ",
"! G Q Q G G ! ! Q Q G ! Q Q G Q W G ! W G ! W Q Q Q G Q G Q G Q G Q Q G Q G Q F G Q G Q Q G Q G Q G G Q ! G G Q ! Q G Q Q Q G / ",
"P Y Y Y Y T P P P P Y Y L P R R R R R R R R R P R E E E ) Y ) Y ) E Y ) Y ) Y ) Y ) Y Y R E E E R R R P I R P P P Y Y Y Y Y Y ) "
};
