/* XPM */
static char *result[] = {
/* columns rows colors chars-per-pixel */
"64 64 248 2 ",
"   c #000000",
".  c #00000B",
"X  c #050400",
"o  c #170202",
"O  c #000113",
"+  c #010819",
"@  c #001017",
"#  c #01181D",
"$  c #1F191F",
"%  c #390102",
"&  c #321C13",
"*  c #37251B",
"=  c #081522",
"-  c #002324",
";  c #00252A",
":  c #112B2F",
">  c #262A2A",
",  c #323331",
"<  c #471105",
"1  c #6D0000",
"2  c #780000",
"3  c #741F1D",
"4  c #4E2C10",
"5  c #670C33",
"6  c #493530",
"7  c #463A38",
"8  c #583B35",
"9  c #4C312C",
"0  c #683D28",
"q  c #623E35",
"w  c #693F36",
"e  c #703429",
"r  c #532A16",
"t  c #3C413D",
"y  c #4D4438",
"u  c #544A3C",
"i  c #684438",
"p  c #75493A",
"a  c #6F482E",
"s  c #33514F",
"d  c #0C4747",
"f  c #4C4B45",
"g  c #574C44",
"h  c #5D544C",
"j  c #595147",
"k  c #5A5853",
"l  c #4A5357",
"z  c #764E43",
"x  c #685649",
"c  c #745747",
"v  c #665D53",
"b  c #795F54",
"n  c #4D6058",
"m  c #6C655B",
"M  c #76675B",
"N  c #75715D",
"B  c #536565",
"V  c #756E65",
"C  c #79746C",
"Z  c #6A7976",
"A  c #73777A",
"S  c #6C6660",
"D  c #850200",
"F  c #8A0006",
"G  c #930000",
"H  c #9C0000",
"J  c #960604",
"K  c #8F0E0E",
"L  c #A2090B",
"P  c #8F2C0C",
"I  c #993836",
"U  c #8D2C2D",
"Y  c #AD3130",
"T  c #980C30",
"R  c #964635",
"E  c #8C4C33",
"W  c #AD503B",
"Q  c #8D4519",
"!  c #C3413B",
"~  c #86334A",
"^  c #B81F55",
"/  c #884A48",
"(  c #815141",
")  c #8B5848",
"_  c #955A4A",
"`  c #905B4F",
"'  c #AE574A",
"]  c #846B58",
"[  c #9C6352",
"{  c #946552",
"}  c #8A6C58",
"|  c #A96853",
" . c #A66855",
".. c #B26E58",
"X. c #B7735C",
"o. c #B1654C",
"O. c #B44C6A",
"+. c #8A7965",
"@. c #957868",
"#. c #917370",
"$. c #B27171",
"%. c #9E5566",
"&. c #CD4B47",
"*. c #CE4C48",
"=. c #D04D49",
"-. c #CE524D",
";. c #D2534D",
":. c #D9534E",
">. c #DB5955",
",. c #D85854",
"<. c #C95354",
"1. c #E25C58",
"2. c #C8785D",
"3. c #D77B5A",
"4. c #D36655",
"5. c #CE596C",
"6. c #CA7C62",
"7. c #D07F64",
"8. c #D2707E",
"9. c #E36A6B",
"0. c #EB7E52",
"q. c #7C8577",
"w. c #97816E",
"e. c #978877",
"r. c #8C8273",
"t. c #A58F7C",
"y. c #AA927D",
"u. c #B1937A",
"i. c #EB835B",
"p. c #EB8157",
"a. c #F48558",
"s. c #D48266",
"d. c #DA866B",
"f. c #DA856A",
"g. c #C6846D",
"h. c #E38B6E",
"j. c #EB8D6E",
"k. c #EB8763",
"l. c #E68D71",
"z. c #EB8F70",
"x. c #ED9071",
"c. c #ED987B",
"v. c #F39474",
"b. c #F99675",
"n. c #FA9A79",
"m. c #F69878",
"M. c #F9946F",
"N. c #747C82",
"B. c #D37190",
"V. c #E67196",
"C. c #7D8888",
"Z. c #878A89",
"A. c #958C81",
"S. c #9C8B8B",
"D. c #9C9586",
"F. c #8C9595",
"G. c #939A9D",
"H. c #979899",
"J. c #818B90",
"K. c #A79887",
"L. c #B59C89",
"P. c #A89389",
"I. c #BBA38A",
"U. c #ADA496",
"Y. c #ACA698",
"T. c #B3AA9B",
"R. c #B6A999",
"E. c #999CA2",
"W. c #9CA5A5",
"Q. c #A4ABAB",
"!. c #BDB2A3",
"~. c #B1B0AE",
"^. c #B5B9B9",
"/. c #AFAEAA",
"(. c #DB839D",
"). c #D19492",
"_. c #E3839D",
"`. c #EB9F87",
"'. c #C7AC93",
"]. c #CCB39B",
"[. c #CDB499",
"{. c #D6BA9D",
"}. c #CFA783",
"|. c #ECA893",
" X c #E788A4",
".X c #E897AA",
"XX c #F298B1",
"oX c #C9BEAC",
"OX c #C2B8A7",
"+X c #DABDA2",
"@X c #D6BCA1",
"#X c #D0B4B8",
"$X c #EDB7B6",
"%X c #EDB3AA",
"&X c #DDC2A9",
"*X c #CCC1B0",
"=X c #D7CBB8",
"-X c #DDD1BD",
";X c #CDC1AF",
":X c #E2C4A6",
">X c #E5C6AA",
",X c #ECCBAD",
"<X c #E7C9AB",
"1X c #F1CEAF",
"2X c #F1CBA5",
"3X c #EEC7B5",
"4X c #F1CDB1",
"5X c #F6C4B5",
"6X c #E6D3BA",
"7X c #F5D3B3",
"8X c #F9D5B5",
"9X c #FBD8B7",
"0X c #FDDAB9",
"qX c #F2D8BC",
"wX c #F2D2AF",
"eX c #FFE0BD",
"rX c #BCC4C5",
"tX c #C6C7CA",
"yX c #D7D8DA",
"uX c #CECED0",
"iX c #EBDECA",
"pX c #E5D7C3",
"aX c #F4D8C7",
"sX c #F6DDD2",
"dX c #F3CAC2",
"fX c #EEE2CC",
"gX c #F2E3CD",
"hX c #FDE6CC",
"jX c #FFE5C9",
"kX c #F4E6D1",
"lX c #FCE3D2",
"zX c #FCEBD4",
"xX c #FFEFD8",
"cX c #F6E4DB",
"vX c #FFF3DB",
"bX c #E8E3DC",
"nX c #DCE1E3",
"mX c #E2E3E4",
"MX c #E5E5E8",
"NX c #EBEBED",
"BX c #E9E8E8",
"VX c #FFFCE4",
"CX c #FFFBE5",
"ZX c #FEFFFE",
"AX c #F5F4F5",
"SX c #F3F0EF",
"DX c #DEDFE0",
"FX c #C39490",
/* pixels */
"FXFXFXFXFXFXFXFXFXFXFXFXFXFXFXFXFXFXFXFXFXFXFXFXFXFXFXFXFXFXFXFXFXFXFXFXFXFXFXFXFXFXFXFXFXFXFXFXFXFXFXFXFXFXFXFXFXFXFXFXFXFXFXFX",
"FXFXFXFXFXFXFXFXFXFXFXFXFXFXFXFXFXFXFXFXFXFXFXFXFXFXFXFX# + @ @ @ @ @ @ @ @ @ @ FXFXFXFXFXFXFXFXFXFXFXFXFXFXFXFXFXFXFXFXFXFXFXFX",
"FXFXFXFXFXFXFXFXFXFXFXFXFXFXFXFXFXFXFX: # + = FXFX#   z h.d.d.d.f.f.f.f.f.f.f.h. .  # ; FXFXFXFXFXFXFXFXFXFXFXFXFXFXFXFXFXFXFXFX",
"FXFXFXFXFXFXFXFXFXFXFXFXFXFXFXFXFXFX= o.7.l.)   [ d.s.d.v.v.v.v.v.v.v.v.v.v.v.v.l.7.d...  ; FXFXFXO . O FXFXFXFXFXFXFXFXFXFXFXFX",
"FXFXFXFXFXFXFXFXFXFXFXFXFXFXFXFXFX> ..lX2XW  .7.h.m.v.v.z.z.z.z.z.z.z.z.j.z.z.z.x.b.b.l.s.X.+ FX+ X.s.7.i FXFXFXFXFXFXFXFXFXFXFX",
"FXFXFXFXFXFXFXFXFXFXFXFXFXFXFXFXFX@ l.$X`.2.d.b.x.z.z.z.z.z.z.z.x.x.x.x.z.z.x.x.x.z.z.v.m.x...; 6.k.a.v.d.c FXFXFXFXFXFXFXFXFXFX",
"FXFXFXFXFXFXFXFXFXFXFXFXFXFXFXFXFX& z 3.z.v.v.j.z.z.v.m.z.x.m.z.x.z.x.x.x.x.x.x.z.j.0.0.k.c.x.2.c.sXBX`.b._ FXFXFXFXFXFXFXFXFXFX",
"FXFXFXFXFXFXFXFXFXFXFXFXFXFXFXFXFX  _ l.x.z.z.x.z.v.7. .v.h.[ z.x.x.x.x.z.x.x.x.h.|.sXsX3X0.x.v.x.dXaX`.v._ FXFXFXFXFXFXFXFXFXFX",
"FXFXFXFXFXFXFXFXFXFXFXFXFXFXFXFXFX[ z.v.j.z.x.x.z.b.s.W b.3.| z.v.x.x.x.x.x.x.x.i.aXZXZXZX$Xx.j.x.i.0.x.6.p FXFXFXFXFXFXFXFXFXFX",
"FXFXFXFXFXFXFXFXFXFXFXFXFXFXFXFX{ x.v.j.x.x.z.z.v.2.}.>Xg.3X6.z.j.z.x.z.x.x.x.x.j.|.SXZXZXAXj.x.x.x.x.m.8 FXFXFXFXFXFXFXFXFXFXFX",
"FXFXFXFXFXFXFXFXFXFXFXFXFXFXFX$ x.x.z.x.x.x.z.z.v.4.Z.^.#.rX( z.x.x.z.z.x.x.x.x.x.i.|.zXcXaXz.x.x.x.z.x...i FXFXFXFXFXFXFXFXFXFX",
"FXFXFXFXFXFXFXFXFXFXFXFXFXFXFX) h.x.x.x.z.z.v.v.z.m.s.' l.Q m.m.v.v.v.v.x.z.z.x.z.z.j.i.i.k.v.x.x.x.x.x.n.` FXFXFXFXFXFXFXFXFXFX",
"FXFXFXFXFXFXFXFXFXFXFXFXFXFX6 x.v.z.x.j.x.v.f.2.s.2.s.s.2.s.7.2.s.2.6.2.z.v.x.z.x.x.x.x.c.x.z.z.x.x.x.z.v. .7 FXFXFXFXFXFXFXFXFX",
"FXFXFXFXFXFXFXFXFXFXFXFXFXFXz l.x.x.z.v.f.k.@.n t > h f h f # k   x k f X.f.h.v.v.x.x.x.x.x.z.v.x.x.x.x.z.m. .FXFXFXFXFXFXFXFXFX",
"FXFXFXFXFXFXFXFXFXFXFXFXFXi z.x.x.z.v.h.}   OXVXU.+.0XwX9X+Xv iXV @X7X8X@.; X.h.l.x.x.x.z.x.x.z.x.x.x.x.z.v.[ FXFXFXFXFXFXFXFXFX",
"FXFXFXFXFXFXFXFXFXFXFXFXFX8 x.x.x.x.z.i ].@.!.vXR.+.9XwX9X+Xf zXkXS @X8X4X7Xt..  .x.x.x.x.x.x.x.x.x.x.x.z.v. .FXFXFXFXFXFXFXFXFX",
"FXFXFXFXFXFXFXFXFXFXFXFXFXi x.x.x.j.w {.+.!.xXCXY.+.9X1X9X{.k gXzXgXm {.9X7X<X7Xy._ m.x.x.x.x.x.x.x.x.x.x.x.x.[ FXFXFXFXFXFXFXFX",
"FXFXFXFXFXFXFXFXFXFXFXFXi h.x.x.l.i [.0Xc oXvXvXT.+.9XwXwX8X@XS kXxXk {.9X1X7X9XwXK./ m.j.x.x.x.x.x.x.x.x.j.n.|   FXFXFXFXFXFXFX",
"FXFXFXFXFXFXFXFXFXFXFXFXp v.v.h.z ].7X0XM OXvXzXzXR.y.{.+.0X>X7 gXzXiXV +Xy.I.0XwX8XK.E v.z.x.x.x.x.x.x.x.z.v.|   FXFXFXFXFXFXFX",
"FXFXFXFXFXFXFXFXFXFXFXFXp x.x.l.  <X0Xt.  *XCXT.oXOX] &X  w.<Xj gXxXvXpXe.  I.0X1XwX,XI._ x.x.z.x.x.x.j.x.x.v.|   FXFXFXFXFXFXFX",
"FXFXFXFXFXFXFXFXFXFXFXFXp x.h.` [.,Xt.    h iXK.A.vXR.9 V oXx f kXxXzXxXpX=XD.].9X1X9X[.% b.x.x.x.x.x.x.x.j.b.|   FXFXFXFXFXFXFX",
"FXFXFXFXFXFXFXFXFXFXFXFXi m.d.. ,X9Xo T.m   m oXU.OXvXA.m vXR.= fXzXzXxXvXCXK.o {.9X1X,XI.[ x.x.x.x.x.x.x.x.v.|   FXFXFXFXFXFXFX",
"FXFXFXFXFXFXFXFXFXFXFXFXp l.} '.,XK.!.hXbXN.  C !.-XvXgXoXxXzXoXvXvXvX!.D.U.h   o '.9X9X{.  m.x.x.x.x.x.x.x.v.|   FXFXFXFXFXFXFX",
"FXFXFXFXFXFXFXFXFXFXFXFX( f., 8XwX$ iXxXuXC 4   k =XzXzXvXzXxXCX!.Y.T.>     A.oXR.K.'.8X<Xy.| l.x.x.j.x.x.j.b.|   FXFXFXFXFXFXFX",
"FXFXFXFXFXFXFXFXFXFXFXFX( f.u ,XwXj -XvXM   p * m *XvXzXzXzXcXK.      4 6   A.fXVX!.c 9X8X&X* l.x.z.x.x.x.x.v.|   FXFXFXFXFXFXFX",
"FXFXFXFXFXFXFXFXFXFXFXFX( s.y 4X7X& pXvXC o {   U.vXzXzXzXzXgXD.~.h 0 a 0 8   U.CX!.+.8X7X@X% v.x.x.x.x.x.x.b.|   FXFXFXFXFXFXFX",
"FXFXFXFXFXFXFXFXFXFXFXFXc f.u ,X[.A.fXvX!.6 < M *XxXzXzXzXzXzXCXyXM 4 0 r ( X R.VX!.] 9X7X<X@.X.x.x.x.x.x.h.b.|   FXFXFXFXFXFXFX",
"FXFXFXFXFXM +.+.b FXFXFXE s.j >X, fXgXaXvXOXv =XvXzXzXzXzXzXzXfX  < a 0 p E c *XvX!.] 9XwX9X<X> h.x.x.x.x.x.v.|   FXFXFXFXFXFXFX",
"FXFXFXFXj &XjXeX].V C FX( f.j >Xx pX.XV.$XxXvXzXzXzXzXzXzXzXzXzXe.  % & p x =XvXCX!.] 9X1X8X:X6 h.v.x.x.x.z.v.|   FXFXFXFXFXFXFX",
"FXFXFX  {.zXzXzXzXCX-XX z s.j >Xg iX$X.X.XaXxXzXvXzXvXzXzXzXcXpXpXr.v m j -XxXfXxX!.M 9X,X8X:X6 h.x.z.x.x.z.b.|   FXFXFXFXFXFXFX",
"FXFXFX  {.hXzXzXzXzXhX].e f.j <Xy iXzXzXzXzXzXgXfXgXfXiXiXiXpXr & pXzXzXzXkX%XV.dX!.M 9XwX8X:X6 h.v.x.x.x.x.b.|   FXFXFXFXFXFXFX",
"FXFXFX  '.jXzXzXzXkXvX=Xp s.u ,Xv +XzXzXzXzXvXY.F ' - 6 7 7 8 <.<.9 pXvXvX$X X X.X$.+.9X1X8X:X6 h.x.x.x.x.x.v.|   FXFXFXFXFXFXFX",
"FXFXFXFX+ ].9X7XwXaXzXhX@X$ j ,X>Xv &XhXzXkXvXY.2 ,.! 5.(.V.(. XV.9 pXxXzXzXkXkXvX!.] 0XwX7X:X6 h.x.x.x.x.z.b.|   FXFXFXFXFXFXFX",
"FXFXFXFXFX> [.9X1X7X7XwXdXNXrXg x {.N {.zXzXzXzXY.2 9. X.X X.X X5.% pXxXzXzXzXzXhXL.] 9X7X7X:X6 h.v.z.x.x.z.m.|   FXFXFXFXFXFXFX",
"FXFXFXFXFXFXm u I.9X7X2XaXZXZXmXrXM   & &X0XjXzXzXU.~  XV. X XB.9 =XzXzXzXzXzXlX'.X w.8X,X8X:X6 h.x.x.x.x.z.v.|   FXFXFXFXFXFXFX",
"FXFXFXFXFXFXFXFXm c T.ZXZXZXZXZXAXDXmXtXC a y oXCXkXpXsXkXcXaXiXpXcXzXxXxXzXI.n _ 2 r.8X4X8X&X6 h.v.z.x.z.z.b.|   FXFXFXFXFXFXFX",
"FXFXFXFXFXFXFXFXFXFXA E.F.Z.J.MXZXZXZXZXnXuXyX/.9 ;XfXq.q.D.vXvXvXzXjXD.S C _ L <.T r.9XwXeX&X6 h.x.x.x.x.z.b.|   FXFXFXFXFXFXFX",
"FXFXFXFXFXFXFXFXFXFXFXFXFX% o.N.F.F.SXZXZXZXZXMXtX~.p G H I D.qX9XaXw.T.=Xs H 1.>.K N eX:Xe.:X6 h.v.z.x.x.z.v.|   FXFXFXFXFXFXFX",
"FXFXFXFXFXFXFXFXFXFXFXFXFXz c.L G G H.W.W.F.nXZXZXNXoX#X).U L.4X8Xw.Y.aXvXiX#.Y Y ) +X:X@.g.,X> h.v.x.x.x.z.v.|   FXFXFXFXFXFXFX",
"FXFXFXFXFXFXFXFXFXFXFXFXFXi l.,.,.,.H D F D S.Q.yXZXZXAXnXQ.iXpXL.U.zXhXqXzXK.X } {.eX[.% c.e...h.x.x.x.x.z.b.|   FXFXFXFXFXFXFX",
"FXFXFXFXFXFXFXFXFXFXFXFXFXi z.;.*.*.>.>.,.>.Y 1 #.yXZXZXZXSXNXuX: gXvXgX8XhXe.u &X9X:Xw.X.d.o.x.x.z.x.x.x.z.v.|   FXFXFXFXFXFXFX",
"FXFXFXFXFXFXFXFXFXFXFXFXFXi z.=.&.&.&.&.&.&.;.9.D G.ZXZXZXZXZXyX7 kXhX9X}.mXyXS.:X<X@.o.b.x.m.l.x.x.x.x.x.z.n.|   FXFXFXFXFXFXFX",
"FXFXFXFXFXFXFXFXFXFXFXFXFXi l.4.-.=.=.=.=.&.&.;.F Q.ZXZXZXZXZXZXJ.].7X:X#.yXZXuXK.t.o.m.z.z.z.x.x.x.x.x.x.z.v.|   FXFXFXFXFXFXFX",
"FXFXFXFXFXFXFXFXFXFXFXFXFXq x.z.;.&.=.=.=.;.&.>.D G.ZXZXZXZXZXZXBXA }.4 tXZXZXZX~.P n.z.x.x.x.x.x.x.x.x.x.j.b.|   FXFXFXFXFXFXFX",
"FXFXFXFXFXFXFXFXFXFXFXFXFXq z.z.;.=.=.=.=.=.=.*.` rXZXZXZXZXZXZXZXNXN.l tXmXSXAXG.E m.z.x.x.x.x.x.x.x.x.x.z.v.|   FXFXFXFXFXFXFX",
"FXFXFXFXFXFXFXFXFXFXFXFXFXq z.z.;.*.=.=.=.&.>.1 Q.ZXAXZXZXZXZXZXZXZXMXMXZ.X E.uXC.E m.z.x.x.x.x.x.x.v.j.x.z.v.|   FXFXFXFXFXFXFX",
"FXFXFXFXFXFXFXFXFXFXFXFXFXq x.z.;.*.;.&.=.*.,.3 ^.ZXZXZXZXZXZXZXZXZXZXZXMXmXH., : { x.z.z.x.z.x.x.x.j.x.x.x.v.|   FXFXFXFXFXFXFX",
"FXFXFXFXFXFXFXFXFXFXFXFXFXq z.z.;.*.=.=.&.,.2 ^.ZXZXZXZXZXZXZXZXZXZXZXZXZXZXMXDXG.E m.l.x.x.x.x.x.x.x.x.x.x.v.|   FXFXFXFXFXFXFX",
"FXFXFXFXFXFXFXFXFXFXFXFXFXq x.z.;.&.=.=.&.>.1 ^.ZXZXZXZXZXZXZXZXZXZXZXZXZXZXZXAXE.E c.z.x.x.x.x.x.x.x.x.x.z.v.| O FXFXFXFXFXFXFX",
"FXFXFXFXFXFXFXFXFXFXFXFXFXi z.z.;.&.=.=.&.,.1 ^.ZXZXZXZXZXZXZXZXZXZXZXZXZXZXZXZXNXE.E v.z.x.x.x.x.j.x.x.x.x.x.x. .. FXFXFXFXFXFX",
"FXFXFXFXFXFXFXFXFXFXFXFXFX8 z.z.;.=.=.=.;.D H.NXZXZXZXZXZXZXZXZXZXZXZXZXZXZXNXMX^.  / z.z.x.x.x.x.x.x.x.x.x.z.b.X.  FXFXFXFXFXFX",
"FXFXFXFXFXFXFXFXFXFXFXFXi d.z.z.;.*.=.*.;.3 s C.B ^.ZXZXZXZXZXnXMXMXZXZXZX~.l B #.B.$._ b.z.x.x.x.x.x.x.x.x.z.b...  FXFXFXFXFXFX",
"FXFXFXFXFXFXFXFXFXFXFXFXp v.z.4.=.=.=.&.>.w 5 O.B.#.Q.AXZXZXnXyXZ Z C.Z.Z.%.^ %.(.V.).L.E m.z.z.x.x.x.x.x.z.z.v...  FXFXFXFXFXFX",
"FXFXFXFXFXFXFXFXFXFXFXFXp x.j.=.*.=.=.=.~ T 5. XXXB.~ Z.F.F.q.q.U L H H H ~ 5 B.V.B.1XaXL.{ c.z.v.j.x.x.x.x.z.b.|   FXFXFXFXFXFX",
"FXFXFXFXFXFXFXFXFXFXFXFXp n.h.=.&.*.&.1.< L.aX.XB.V.^ X G G J Y >.>.>.>.1.W R ~ $.4XvXfX#.U [ v.j.z.x.x.x.x.j.x.h._ FXFXFXFXFXFX",
"FXFXFXFXFXFXFXFXFXFXFXFXg X.v.:.:.=.:.G S.sXvXlX X^ / ' 1.1.,.J F P U I U =.Y } @X0X6Xe.L ;.I ..v.x.j.z.x.x.v.j.m.6.O FXFXFXFXFX",
"FXFXFXFXFXFXFXFXFXFXFXFXFX, ..I I ,.J A.kXlXjX6XP.5 4 I I J _ W.G.C.- d FXU #.&X8X8XI.< >.I I X ..x.b.m.x.z.z.l.n.6.O FXFXFXFXFX",
"FXFXFXFXFXFXFXFXFXFXFXFXFXFX. # - F A.cXhX9X<XM X > : -   Z F.FXFXFXFXFXFX  [.jX1X8X:X} F - # > +  .6.X.l.b.v.m.h.) FXFXFXFXFXFX",
"FXFXFXFXFXFXFXFXFXFXFXFXFXFXFXFXFXe.zXvXaX&XC FXFXFXFXFXFXFXFXFXFXFXFXFXFXFXR.'.<X<X>XwX#.FXFXFXFXO O    .7.6.7.) FXFXFXFXFXFXFX",
"FXFXFXFXFXFXFXFXFXFXFXFXFXFXFXFX, kXzXlXvXA.FXFXFXFXFXFXFXFXFXFXFXFXFXFXFXFXFX  t.y.c >XR.+ FXFXFXFXFXFXFX      FXFXFXFXFXFXFXFX",
"FXFXFXFXFXFXFXFXFXFXFXFXFXFXFXFX> gXCXzXCXK.FXFXFXFXFXFXFXFXFXFXFXFXFXFXFXFXFXFXFX  $     FXFXFXFXFXFXFXFXFXFXFXFXFXFXFXFXFXFXFX",
"FXFXFXFXFXFXFXFXFXFXFXFXFXFXFXFX, 6XiX:XaXA.FXFXFXFXFXFXFXFXFXFXFXFXFXFXFXFXFXFXFXFXFXFXFXFXFXFXFXFXFXFXFXFXFXFXFXFXFXFXFXFXFXFX",
"FXFXFXFXFXFXFXFXFXFXFXFXFXFXFXFXFX@   O   FXFXFXFXFXFXFXFXFXFXFXFXFXFXFXFXFXFXFXFXFXFXFXFXFXFXFXFXFXFXFXFXFXFXFXFXFXFXFXFXFXFXFX",
"FXFXFXFXFXFXFXFXFXFXFXFXFXFXFXFXFXFXFXFXFXFXFXFXFXFXFXFXFXFXFXFXFXFXFXFXFXFXFXFXFXFXFXFXFXFXFXFXFXFXFXFXFXFXFXFXFXFXFXFXFXFXFXFX"
};
