/* XPM */
static char *result[] = {
/* columns rows colors chars-per-pixel */
"64 64 60 1 ",
"  c #A4672E",
". c #A5692F",
"X c #A66A31",
"o c #AA6E33",
"O c #AE7236",
"+ c #AF7438",
"@ c #B17437",
"# c #B37638",
"$ c #B6793A",
"% c #BA7C3D",
"& c #C07E3C",
"* c #BC7F40",
"= c #BE803F",
"- c #C3813E",
"; c #BF8241",
": c #BE884A",
"> c #C28542",
", c #CB8741",
"< c #C68845",
"1 c #CB8944",
"2 c #C68C4B",
"3 c #C98E4C",
"4 c #D38D45",
"5 c #D88F44",
"6 c #C7904F",
"7 c #CB914E",
"8 c #DA9146",
"9 c #D5954D",
"0 c #DB964C",
"q c #DC994E",
"w c #CE9450",
"e c #D29651",
"r c #D59852",
"t c #DC9D54",
"y c #E29547",
"u c #EA9847",
"i c #E29648",
"p c #E49A4C",
"a c #EB9C4B",
"s c #F09F4C",
"d c #E29E51",
"f c #E89F50",
"g c #DFA056",
"h c #EEA04E",
"j c #F1A04E",
"k c #E5A255",
"l c #EDA453",
"z c #EFA857",
"x c #E6A559",
"c c #E9A659",
"v c #EEAB5B",
"b c #F1A553",
"n c #F3A956",
"m c #F3AD5B",
"M c #F8AF5B",
"N c #F6B15E",
"B c #FAB25E",
"V c #F7B360",
"C c #FCB561",
"Z c #FFBA64",
/* pixels */
"##++##@@@##+@@@#@@@##++++#+#+@@##+@@@++@+++++++#+##+@+@@@++++###",
"#$%%%%%%%%%%%%%%%%$$$%==%$%$%%$$$$$$$=%%===$$=$%%$=$%$%%%===$$$#",
"@<CBVVVVVVCCCVVzu9777vBVBhuap777777@>CBBVVBCnuuuuuauaumCBBBV96=+",
"+<CBBBCBBVBBBBBba9we7NCCBhaaar9rer7@>VBBVBBCnhhphhhhhaNBBBZCgw=#",
"@-aaaaap30aaaaaah96puNZ96pauhNCBCCN#=7w777770apuzBBZBZbaNZBBBB>+",
"@-aappaqetlaapapa09phBCgwhhhhNBNBBz@=w97w9rrqhhhnZBBNBhuMZBNBN=#",
"@-apw97kZCZc79we7vZBBZCZBBZhaha97e7@-hp7gZCCCCBZZBc7w7paBBg7ww=+",
"@-p8772rmvmt23376kNmvNvvNmmpyy8767<@=y069NNmmNNnvNg2760ycN9277$#",
"@$O+@+++#++++++o++OOOO++@+@#OOO#@@#@+++++OO+OOOoOOO++O@+@@+++O#$",
"$$------*%%><<<<<<<<1====---1<>##======-----<<<<<<<1--======><$$",
"+-jhaaapww6xZZCCZZZCBg677hhBZZB=#777779aaaaubZZZBZBZna967777BZ=@",
"@-ppbhbp999kBmmNvvmBCxt970pnNBn$$grttrklhahjzNvmmNNBjatggqgrNB-@",
"@%6tZCZBuaaaa836777vZBZt777uaay#=ZCZZCZZBabZv276629auuNZBZZBZZ=#",
"@=txCNkkppphbktr777zBNnq9ttlhzh$%vvmnBmvcikvxtggggpahalvmmckxk=#",
"@<ZZZc ;wqaMZCZx7e7paaaajBZZZZC$$79hahu67ew6xZZZZZMahh96ww$oOO##",
"@>kkk0@;318pxkke<2<588588kkkkkk$$2<8888<<<2<7kkkxlh-884<22=$$$$#",
"#@oo.o+ooOOOXo@@@@$@O$@OOooOoX.OoooO#$O@@$o@oXXX.XXOooO@OO$$@$$$",
"@%149999r4-44-----------14<-109q9r9$=-------49999999994-4-----=$",
"#-snZZCZZNuhhhajjjshjjjjaaaasBZZZZB@-jhhjjhuMZZZZZZZZZbhjhjjuj%@",
"@-aamnxcxzbznbnhjsuuujnMnaaaacccvBn@-bzzbjhhbncxxxxxxxzmnnq8bb-@",
"+-huu027:xZZZZZnaaaauBBZZlaaa726wZM@<ZZZBuhuuu8666636:vZZZg6NZ=@",
"+-nmnzxkccxxkxxkuaannBBcx00aaxkqqxg@=xkxlnnbnmcxxxg6glBBckw7kx=@",
"@1ZZZZZZZv67777phhhBZZZg6wejhCCjke3@=677gZZZZZZBZZv6mZBZg6ee77=@",
"+=9qr99991>>:>>----999q<>>>-19q<--=#==<=399999qq8r2=7qr92=-:;<$@",
"$#.......oOOO@@O$Oo...oOo@@OOooo@@@#Ooooo....ooOoO@$o.X.OOoooo@#",
"+=xkkkxkxq8881<<1qxkkkkkk=@4888888u-0kkkkxxxh-u--88-kxkxh-kxkk=@",
"+1ZZZZZCBMahh0776mZBZZZZZ>@ahaaahhuubBBZZZZZBujhjjjunBZZbuBZZB-@",
"#=gggggdgkahMvvk0kgNCCBBB-@yanMMnMnhhbMBBBNhbhhubBMMBBZBBMbbbb=@",
"#=76666660anZBZna0:mZBCZC>@yhBZZZZBahuhBBZMuuhhuMZBBBZZBZBhhhu=O",
"+=7rNmvNmmBcgggpuzNBZnljz-#vBBBhhhhahuhznZBBbuuujjMZnjbbbbnBjh=@",
"+=7gCZZZBZZc6760hMBZZzuaa%$BZZBhhauhhahunBZZMhhhhhMZbuhhhuBZbu=@",
"#$==<<<<<<1>====--11<----$#-1<1----=-----1<--=-=---1----------$@",
"##@@++o+oOO+@@@@++OOO++++##@OOO@@#@@#@@#++++O+++++OO++OOOOOO+##$",
"@&ppyfmmmmml8ypyyyyzmnmNv92$#$$$#$#$$##$$#$@-uyyhvnvmNmvvNhy8y%#",
"@-aaubCZCCCMaaahaaaNCZCCCr7%###$###$###$###+1jaanCZCZCCZBZbaha%#",
"@-aaaperrrezBBBBBbuhhqerrNNmmaypyu0#=upNmmNBbaaahhMZCCCCCCBBha%#",
"@&aasp7e7w7kCCCVCzaah9777NVCCaaaaay+-ahBBCCCnuaaaamCCCBCCBCBja%#",
"@<CCBVVVCc7er9rr9vBBC1@%$===%$%%%%$$#%=%9Zz$=$4snBCCBZbhjhhaBB-@",
"@<CCCBVVCx7777777vCVB<O$##@@######@$$@#O<CkO$O-jnCBBBCluaaupBV-@",
"##%%%$%%%%$#$$$$#$%%%$@####$$####$$@@$@@$$$@$@$$$%%%=%$$$$%$%%$#",
"#$#$$%%$%$%$$%$$%%$%%=%$$$$$$$$#$$%%==$==$=$$%$$$$%%%%%%%%$$$$##",
"#%3tCCCVCnupuupMCBCCVBVe7777777$$uhBVBVCNBNyuauaauzCBVVVVBhuaa%#",
"#*wtVBCCBMahhaanVBVVBBCger999w7#%ahBBBBBBZNahaapaanCCBBBBBlaaa%$",
"#%77w9aaanCCCna0777phNZCCCVhpe7#$aaauhhubZBCnahhaaMZbaaaaaaaaa%@",
"#;rrrtsaubBBBbuqrrrpanBBBBBha94#%hhhhaauhNnNlyuyiyzBlaaahhhhhj=@",
"+1CCCCZMahaaaaaMZCZbahahhaaaahh#-BZBBaah8+#$#####+5jaaaaBZCCCC>@",
"+>mmvmmc8yyypy8lmvvpyyyyyyy08y0$=vvvz8yu5#$$$$$#$@1yyyy8cmzvvm=@",
"$@oo+o+oOOO++@++++O+++++O@@###OO@OOOOOOOO+OO+++#@@@@@O@OOOOOOO@$",
"@%<<1<1<<1<<------------1==$$--==<<<1<11<<<1----------<11111<<$$",
"@<ZCZCZZZZZnuasahhhhjuhBZr6=$ph7eZZZZZZBZZZCBuhaaaaaaaNBZZZCZZ-#",
"+<BmvmMBmBCMhljbbbbhuuhMBgr=$uhwevvmmmmBBnMNnhlljljbhunBNvBCNv;#",
"@$6629uuabZCZZZCZBBzuhuMZZB=+uh9e776267aaaaanZCZZZZZbuaa72NC96$#",
"@=gggkblubNmvvvvvNBbuuhzmmc=@88<2<7ggggnhaaalvvvvvvvnhzjkgBCkg=+",
"+1ZZZCZBahaq77w76mZnhhh9677=#@@@#O=ZZZCZBaajp6w77776vZCCZZCCZZ;+",
"@-kkkkkq8881<<2<<9l0-y836<2$$$$$$#=kkpkkh-881<<<3<2<tkkkkkkkkk=#",
"$@o o .ooooO+O@@@o.ooooooooOOoOOO@+OOO.OOOOOOOOOOoooOooooo. o+##",
"+=qqrq99994-5<->=wq99999999qq091-<=$%><11;<;6q9999904441<-9q=###",
"O<ZZZZZZCMaas0776mZZZZZZZZZZZZChp96#%79jp6e6xZZZZZZZnuaajjBZ<+$$",
"@=0knnkvCNbbnzxk8lnxvxxxxxxznvnnnxg@>xkauq08gxxkvxNCnnhaaalx=@##",
"$#o-a0:gZZZZCCZnuhh4:663662uuahCZZBO<CBuaahh0<666:xZCZzaaa97=##$",
"#$+<Mzxxkxxkxznhjhulxxxxxxxha00xkkgO>CNajjuqgvxxxxNCvxpaaa1>$#$$",
"#$O4ZCZN2w776qaajnjMZZZZZZZhh9w7777+<ZBajnp6xZZZZZZZk2pjaj-O###$",
"#$#=9991;:>>;,4----4rr499q9--<;=>>=#=q8----=294999991;1-11%#$##$",
"##$+OO++@+@@@@@$@#$@oOOOOOO$+##+#+@#+O+#+#$@@oOOOOO+@@$+@@@$@$@$"
};
